<?xml version="1.0" encoding="UTF-8"?>
<svg version="1.1" xmlns="http://www.w3.org/2000/svg" width="100" height="100">
<path d="M0 0 C0.85078125 -0.00386719 1.7015625 -0.00773437 2.578125 -0.01171875 C18.15474159 0.01217177 18.15474159 0.01217177 24.625 5.25 C26.75730599 7.3315481 26.75730599 7.3315481 29 7.125 C30.33333333 8.45833333 31.66666667 9.79166667 33 11.125 C33.86625 11.599375 34.7325 12.07375 35.625 12.5625 C38.47352298 14.43652827 39.04489413 15.91237115 40 19.125 C40.66 19.125 41.32 19.125 42 19.125 C42.98163422 21.06125098 43.96022454 22.99904539 44.9375 24.9375 C45.48277344 26.01644531 46.02804688 27.09539063 46.58984375 28.20703125 C48 31.125 48 31.125 49 34.125 C48.505 35.115 48.505 35.115 48 36.125 C48.66 36.455 49.32 36.785 50 37.125 C50.02925502 40.81248309 50.04688418 44.49993592 50.0625 48.1875 C50.07087891 49.22583984 50.07925781 50.26417969 50.08789062 51.33398438 C50.10496442 56.71223069 49.95415152 61.82833211 49 67.125 C48.34 67.125 47.68 67.125 47 67.125 C47.33 68.115 47.66 69.105 48 70.125 C46.97746933 72.72065478 45.98953324 74.13546676 44 76.125 C43.5359375 77.3934375 43.5359375 77.3934375 43.0625 78.6875 C42.711875 79.491875 42.36125 80.29625 42 81.125 C40.515 81.62 40.515 81.62 39 82.125 C38.71125 82.90875 38.4225 83.6925 38.125 84.5 C36.69270874 87.84201294 35.13782153 88.40666916 32 90.125 C31.1646875 91.053125 31.1646875 91.053125 30.3125 92 C21.59813897 100.00779122 11.1330063 100.30062022 -0.0625 100.25 C-0.92166016 100.25386719 -1.78082031 100.25773437 -2.66601562 100.26171875 C-7.55080978 100.25425535 -12.18422282 99.94832147 -17 99.125 C-17 98.465 -17 97.805 -17 97.125 C-18.485 97.62 -18.485 97.62 -20 98.125 C-22.59565478 97.10246933 -24.01046676 96.11453324 -26 94.125 C-26.845625 93.815625 -27.69125 93.50625 -28.5625 93.1875 C-29.366875 92.836875 -30.17125 92.48625 -31 92.125 C-31.33 91.135 -31.66 90.145 -32 89.125 C-32.78375 88.83625 -33.5675 88.5475 -34.375 88.25 C-37.71701294 86.81770874 -38.28166916 85.26282153 -40 82.125 C-40.639375 81.526875 -41.27875 80.92875 -41.9375 80.3125 C-45.56563148 76.46448177 -48.09457698 71.36118132 -49 66.125 C-48.505 65.135 -48.505 65.135 -48 64.125 C-48.66 63.795 -49.32 63.465 -50 63.125 C-50.02925502 59.43751691 -50.04688418 55.75006408 -50.0625 52.0625 C-50.07087891 51.02416016 -50.07925781 49.98582031 -50.08789062 48.91601562 C-50.10496442 43.53776931 -49.95415152 38.42166789 -49 33.125 C-48.34 33.125 -47.68 33.125 -47 33.125 C-47.495 31.64 -47.495 31.64 -48 30.125 C-46.97746933 27.52934522 -45.98953324 26.11453324 -44 24.125 C-43.690625 23.279375 -43.38125 22.43375 -43.0625 21.5625 C-42.711875 20.758125 -42.36125 19.95375 -42 19.125 C-41.01 18.795 -40.02 18.465 -39 18.125 C-38.71125 17.34125 -38.4225 16.5575 -38.125 15.75 C-36.69270874 12.40798706 -35.13782153 11.84333084 -32 10.125 C-31.443125 9.50625 -30.88625 8.8875 -30.3125 8.25 C-21.6162093 0.25881395 -11.17433993 -0.05079245 0 0 Z " fill="#E15111" transform="translate(50,-0.125)"/>
<path d="M0 0 C6.87072603 3.69962171 9.90646875 7.34141734 12.25 14.75 C13.02260333 21.04119858 11.36898896 26.64573716 7.81762695 31.84838867 C6.15376058 33.963709 4.44035546 36.02039446 2.6875 38.0625 C1.51861846 39.45366065 0.35061331 40.84555825 -0.81640625 42.23828125 C-1.33146729 42.84196533 -1.84652832 43.44564941 -2.37719727 44.06762695 C-3.92917171 45.91447113 -3.92917171 45.91447113 -5.75 48.75 C-9.47531343 48.5375044 -10.61280319 47.89611135 -13.21484375 45.125 C-14.05377714 44.01092984 -14.87740495 42.88521256 -15.6875 41.75 C-16.1198999 41.16420166 -16.5522998 40.57840332 -16.99780273 39.97485352 C-18.26557958 38.24477508 -19.51106124 36.500808 -20.75 34.75 C-21.39195313 33.85152344 -22.03390625 32.95304687 -22.6953125 32.02734375 C-26.7727772 26.12782357 -28.87926819 21.12269345 -27.75 13.75 C-25.28816921 7.12624002 -21.7638956 3.31378999 -15.75 -0.25 C-10.33834655 -2.05388448 -5.38812737 -1.79604246 0 0 Z " fill="#E85816" transform="translate(57.75,26.25)"/>
<path d="M0 0 C6.87072603 3.69962171 9.90646875 7.34141734 12.25 14.75 C13.02260333 21.04119858 11.36898896 26.64573716 7.81762695 31.84838867 C6.15376058 33.963709 4.44035546 36.02039446 2.6875 38.0625 C1.51861846 39.45366065 0.35061331 40.84555825 -0.81640625 42.23828125 C-1.33146729 42.84196533 -1.84652832 43.44564941 -2.37719727 44.06762695 C-3.92917171 45.91447113 -3.92917171 45.91447113 -5.75 48.75 C-9.47531343 48.5375044 -10.61280319 47.89611135 -13.21484375 45.125 C-14.05377714 44.01092984 -14.87740495 42.88521256 -15.6875 41.75 C-16.1198999 41.16420166 -16.5522998 40.57840332 -16.99780273 39.97485352 C-18.26557958 38.24477508 -19.51106124 36.500808 -20.75 34.75 C-21.39195313 33.85152344 -22.03390625 32.95304687 -22.6953125 32.02734375 C-26.7727772 26.12782357 -28.87926819 21.12269345 -27.75 13.75 C-25.28816921 7.12624002 -21.7638956 3.31378999 -15.75 -0.25 C-10.33834655 -2.05388448 -5.38812737 -1.79604246 0 0 Z M-22.1875 9.3125 C-24.62683279 14.67903213 -24.90322345 20.2255418 -23.0546875 25.875 C-20.83317338 30.20601913 -18.14427166 32.78827158 -13.75 34.75 C-8.05023003 35.59029988 -2.61700609 35.87680622 2.3125 32.5625 C5.85010401 29.72701587 7.98506061 26.37054595 8.71875 21.8828125 C8.77968803 16.01752668 8.70011283 11.62843666 4.72265625 7.0859375 C0.13980802 2.92855264 -4.28696207 2.19488741 -10.28515625 2.40234375 C-15.47066591 3.13373893 -18.58007075 5.52007438 -22.1875 9.3125 Z " fill="#FDF5F1" transform="translate(57.75,26.25)"/>
<path d="M0 0 C1.65 0 3.3 0 5 0 C5.02705729 1.77074917 5.04642195 3.54161711 5.0625 5.3125 C5.07410156 6.29863281 5.08570313 7.28476562 5.09765625 8.30078125 C5 11 5 11 4 14 C3.93334624 15.39439664 3.91461801 16.79169875 3.9375 18.1875 C3.958125 19.445625 3.97875 20.70375 4 22 C3.01 22 2.02 22 1 22 C0.08839714 14.64206267 -0.11459026 7.41017023 0 0 Z " fill="#FDF6F2" transform="translate(44,34)"/>
<path d="M0 0 C0.66 0.33 1.32 0.66 2 1 C-0.16345365 3.32622132 -2.35452081 4.91608797 -5.0625 6.5625 C-10.78611015 10.28096383 -15.32773548 15.06437192 -20 20 C-20 16.18692647 -18.96457553 14.25171122 -17 11 C-14.5625 9.375 -14.5625 9.375 -12 8 C-11.401875 7.360625 -10.80375 6.72125 -10.1875 6.0625 C-7.2282864 3.27238432 -3.84239433 1.35564995 0 0 Z " fill="#A6791A" transform="translate(30,2)"/>
<path d="M0 0 C0.99 0.33 1.98 0.66 3 1 C3 7.93 3 14.86 3 22 C2.01 22 1.02 22 0 22 C0 14.74 0 7.48 0 0 Z " fill="#FEFBF9" transform="translate(53,34)"/>
<path d="M0 0 C-1 2 -1 2 -3.16796875 3.0859375 C-6.27786451 4.08968317 -9.05539698 4.41024596 -12.3125 4.625 C-13.38113281 4.69976562 -14.44976562 4.77453125 -15.55078125 4.8515625 C-16.76314453 4.92503906 -16.76314453 4.92503906 -18 5 C-15.47580407 2.47580407 -13.57642137 2.21042962 -10.125 1.375 C-9.07570313 1.11460938 -8.02640625 0.85421875 -6.9453125 0.5859375 C-4 0 -4 0 0 0 Z " fill="#9D0801" transform="translate(72,95)"/>
<path d="M0 0 C0.66 0.33 1.32 0.66 2 1 C-1.07182681 4.395177 -4.13959595 6.87597306 -8.8125 7.1875 C-9.534375 7.125625 -10.25625 7.06375 -11 7 C-7.54143152 4.05004453 -4.19978515 1.77324262 0 0 Z " fill="#795713" transform="translate(30,2)"/>
<path d="M0 0 C0.66 0.33 1.32 0.66 2 1 C2 3.64 2 6.28 2 9 C1.01 9 0.02 9 -1 9 C-0.67 6.03 -0.34 3.06 0 0 Z " fill="#FCEFE9" transform="translate(46,47)"/>
<path d="M0 0 C0 3 0 3 -2.5 5.6875 C-3.325 6.450625 -4.15 7.21375 -5 8 C-5.66 7.67 -6.32 7.34 -7 7 C-4.78071806 4.09197539 -3.07030857 2.04687238 0 0 Z " fill="#EE7624" transform="translate(42,30)"/>
<path d="" fill="#000000" transform="translate(0,0)"/>
<path d="" fill="#000000" transform="translate(0,0)"/>
<path d="" fill="#000000" transform="translate(0,0)"/>
<path d="" fill="#000000" transform="translate(0,0)"/>
<path d="" fill="#000000" transform="translate(0,0)"/>
<path d="" fill="#000000" transform="translate(0,0)"/>
<path d="" fill="#000000" transform="translate(0,0)"/>
<path d="" fill="#000000" transform="translate(0,0)"/>
<path d="" fill="#000000" transform="translate(0,0)"/>
<path d="" fill="#000000" transform="translate(0,0)"/>
<path d="" fill="#000000" transform="translate(0,0)"/>
<path d="" fill="#000000" transform="translate(0,0)"/>
<path d="" fill="#000000" transform="translate(0,0)"/>
<path d="" fill="#000000" transform="translate(0,0)"/>
<path d="" fill="#000000" transform="translate(0,0)"/>
<path d="" fill="#000000" transform="translate(0,0)"/>
<path d="" fill="#000000" transform="translate(0,0)"/>
<path d="" fill="#000000" transform="translate(0,0)"/>
</svg>
